<svg width="367" height="190" viewBox="0 0 367 190" version="1.1" xmlns="http://www.w3.org/2000/svg" xmlns:xlink="http://www.w3.org/1999/xlink">
<title>Arch</title>
<desc>Created using Figma</desc>
<g id="Canvas" transform="translate(-23267 -5529)">
<clipPath id="clip-0" clip-rule="evenodd">
<path d="M 23267 5529L 23634 5529L 23634 5719L 23267 5719L 23267 5529Z" fill="#FFFFFF"/>
</clipPath>
<g id="Arch" clip-path="url(#clip-0)">
<g id="Group">
<g id="Yellow">
<use xlink:href="#path0_fill" transform="translate(23274.5 5587.73)" fill="#FFED27"/>
</g>
<g id="Magenta">
<use xlink:href="#path1_fill" transform="translate(23274.6 5542.23)" fill="#FF257A"/>
</g>
<g id="Blue">
<use xlink:href="#path2_fill" transform="translate(23273 5535)" fill="#00C9DD"/>
</g>
<g id="Overlap Gray">
<use xlink:href="#path3_fill" transform="translate(23273 5552.28)" fill="#4A636F"/>
<use xlink:href="#path4_fill" transform="translate(23273 5552.28)" fill="#4A636F"/>
<use xlink:href="#path5_fill" transform="translate(23273 5552.28)" fill="#4A636F"/>
<use xlink:href="#path6_fill" transform="translate(23273 5552.28)" fill="#4A636F"/>
</g>
<g id="Overlap Green">
<use xlink:href="#path7_fill" transform="translate(23439.2 5604.38)" fill="#5BB25F"/>
<use xlink:href="#path8_fill" transform="translate(23439.2 5604.38)" fill="#5BB25F"/>
</g>
</g>
</g>
</g>
<defs>
<path id="path0_fill" d="M 172.286 51.8118C 167.387 57.053 160.159 62.1863 151.781 64.2778C 143.968 65.9645 136.83 65.6711 131.764 64.3712C 126.444 62.8561 121.998 60.2688 118.732 58.2336L 117.657 57.5604C 114.968 55.8702 112.993 54.6301 110.516 53.9406C 107.524 52.9614 105.072 52.7153 100.084 53.8203C 91.7051 55.5204 78.7158 63.196 64.4434 74.468C 50.4736 85.4871 36.9131 98.5717 27.0908 109.9C 21.3672 116.435 18.2549 121.784 16.2373 126.02C 10.9566 124.169 0 118.251 0 118.251C 0 118.251 6.75293 105.927 13.498 98.0999C 23.8555 86.1821 38.6328 71.9303 53.2871 60.3424C 67.6387 49.0077 83.5586 38.8064 96.5049 36.1797C 104.03 34.7455 110.96 35.2924 115.831 36.7433C 120.897 38.3953 125.085 40.9836 128.253 42.9575L 128.766 43.2778C 131.652 45.0803 133.661 46.3348 136.411 46.9817C 139.574 47.8816 142.371 48.0355 147.807 46.7222C 152.68 45.8137 155.389 43.6345 159.067 39.5945C 161.885 36.5842 164.427 32.941 167.213 28.9485L 167.218 28.9414C 168.167 27.5807 169.146 26.1796 170.172 24.749C 178.39 13.3099 189.735 0 212.294 0C 227.465 0 243.905 9.14478 258.91 20.4937C 274.169 32.0573 290.006 47.5479 303.916 62.6544C 317.837 77.7836 330.311 92.9886 339.181 104.263C 343.633 109.924 349.711 117.972 349.711 117.972L 334.558 126.338C 334.558 126.338 329.539 119.755 326.233 115.553C 317.477 104.422 304.251 89.5908 290.673 74.8451C 277.082 60.0768 262.419 45.6925 248.053 34.85C 233.433 23.7926 221.123 18 212.294 18C 198.853 18 192.198 24.9401 184.791 35.251C 183.965 36.3998 183.131 37.5884 182.281 38.7994L 182.222 38.8848L 182.215 38.8944C 179.207 43.1836 176.007 47.7471 172.286 51.8118Z"/>
<path id="path1_fill" d="M 13.7641 171.428C 13.7641 171.428 15.1445 171.999 15.9893 171.91L 16.4912 170.882C 18.6709 166.433 22.1394 160.181 26.3562 152.586C 34.8474 137.284 47.0886 117.256 62.9256 97.0472C 94.8767 56.2264 138.913 18 190.851 18C 242.251 18 278.279 55.5945 302.109 96.0664C 313.96 116.153 322.243 136.015 327.751 151.276C 330.483 158.836 332.435 165.03 333.748 169.465C 334.007 170.339 334.438 171.839 334.438 171.839L 351.008 164.355C 351.008 164.355 347.534 153.07 344.681 145.162C 339.016 129.485 330.056 108.097 317.62 86.9337C 292.875 44.9056 252.153 0 190.851 0C 130.089 0 81.3748 44.2736 48.7508 85.9528C 32.3006 106.994 19.2986 128.216 10.6179 143.851C 6.2488 151.726 2.85916 158.375 0.617947 162.95C -0.205296 164.631 0.0316148 166.999 0.0316148 166.999L 13.7641 171.428Z"/>
<path id="path2_fill" d="M 127.861 28.0845C 120.44 20.8503 112.513 17.1217 102.176 18.1789C 90.9489 19.3271 79.5553 28.0525 68.4342 43.7012C 57.32 59.2721 48.1129 79.3431 40.4068 99.9592C 32.6979 120.546 26.9069 140.815 22.9664 156.193C 21.0055 163.844 19.5416 170.144 18.5514 174.606C 18.1344 176.482 16.5382 177.838 16.5382 177.838L 12.9955 177.376C 12.9955 177.376 4.10645 176.413 0 174.431C 0.224609 173.378 0.650989 172.179 0.979114 170.703C 1.98888 166.156 3.51915 159.572 5.5299 151.724C 9.5338 136.105 15.6012 114.914 23.5475 93.6523C 31.4977 72.42 41.7418 50.2544 53.7623 33.274C 65.774 16.3714 81.195 2.23082 100.345 0.272327C 117.257 -1.45729 130.207 5.23314 140.426 15.1953C 150.02 24.6517 157.903 37.6245 165.08 49.8209L 166.384 52.0406C 173.062 63.4088 179.317 74.0563 186.816 82.0514C 194.377 90.191 202.309 94.7256 212.26 94.7256C 230.063 94.7256 242.004 82.6413 255.905 68.5719L 256.112 68.362C 257.129 67.3337 258.155 66.2953 259.196 65.2505C 266.224 58.1911 274.412 50.4215 284.127 46.7818C 294.867 42.7585 306.24 44.1282 318.297 52.2659C 345.257 70.4647 353.211 104.664 355.296 131.597C 356.345 145.324 354.866 158.765 354.164 167.884C 353.951 170.637 353.482 175.228 353.482 175.228L 335.987 179.083C 335.987 179.083 336.006 178.953 336.017 178.88C 336.113 178.243 336.24 177.353 336.392 176.155C 336.707 173.7 337.091 170.284 337.422 165.974C 338.099 157.229 338.521 145.686 337.522 132.972C 335.513 107.024 327.89 80.4588 308.225 67.1852C 300.282 61.8229 294.967 61.9425 290.442 63.6379C 284.891 65.717 279.235 70.635 271.951 77.9507C 270.819 79.0878 269.652 80.2842 268.445 81.5215L 268.36 81.6085L 268.252 81.7201C 255.35 94.9537 238.025 112.726 212.26 112.726C 195.713 112.726 183.333 104.751 173.628 94.3009C 164.591 84.4903 157.106 71.7667 150.132 59.9109L 149.567 58.9499C 142.431 46.8248 135.908 35.8242 127.861 28.0845Z"/>
<path id="path3_fill" d="M 125.149 8.33215C 126.065 9.10278 126.97 9.92688 127.868 10.8025C 131.265 14.0693 134.39 17.9171 137.404 22.1851C 142.835 19.3571 148.4 16.8845 154.095 14.8282C 150.486 9.50122 146.642 4.43164 142.471 0C 136.531 2.4198 130.756 5.21875 125.149 8.33215Z"/>
<path id="path4_fill" d="M 35.881 95.3561C 26.0665 109.566 18.0226 123.01 12.0343 133.795C 7.66514 141.67 4.27546 148.319 2.03425 152.894C 1.37604 154.237 0.965697 155.035 0.328196 156.43C 0.198867 156.713 7.57919e-05 157.156 7.57919e-05 157.156C 7.57919e-05 157.156 10.463 161.789 15.2423 161.944C 15.9913 161.968 16.7735 161.935 17.5772 161.855C 17.8164 160.714 18.1416 159.2 18.5586 157.324C 19.5488 152.862 21.0127 146.562 22.9736 138.911C 26.0996 126.71 30.3907 111.431 35.881 95.3561Z"/>
<path id="path5_fill" d="M 283.18 29.8724C 277.514 32.1743 272.374 35.8552 267.686 39.9244C 272.055 44.016 276.205 48.3842 280.145 52.9581C 283.828 49.8203 287.157 47.589 290.449 46.356C 292.502 45.587 294.716 45.1422 297.265 45.3859C 292.875 40.0165 288.184 34.8081 283.18 29.8724Z"/>
<path id="path6_fill" d="M 337.256 112.522C 337.339 113.421 337.46 114.793 337.529 115.69C 338.528 128.404 338.107 139.947 337.43 148.692C 337.099 153.002 336.714 156.418 336.399 158.873C 336.247 160.071 336.12 160.961 336.024 161.598L 335.994 161.801C 336.584 161.877 337.16 161.926 337.718 161.944C 342.616 162.099 348.88 159.92 353.478 157.954C 353.189 156.924 352.836 155.692 352.424 154.299C 351.065 149.711 348.95 143.014 346.097 135.106C 343.739 128.582 340.768 120.596 337.256 112.522Z"/>
<path id="path7_fill" d="M 12.1689 29.6069C 10.5215 28.1201 8.94531 26.5524 7.43359 24.9247C 4.83594 22.1042 2.36621 19.0431 0 15.8309C 0.81543 14.6908 1.63965 13.5106 2.48535 12.2981L 2.49023 12.291C 3.43945 10.9303 4.41797 9.52917 5.44434 8.09863C 7.2041 5.64893 9.10742 3.11353 11.2334 0.641357C 14.2148 5.06201 17.2959 9.12939 20.6221 12.6752C 21.3467 13.4553 22.0742 14.2024 22.8076 14.9155C 21.8945 16.0872 20.9854 17.3177 20.0635 18.6006C 19.2373 19.7494 18.4033 20.938 17.5537 22.149L 17.4941 22.2344L 17.4873 22.244C 15.7949 24.6573 14.042 27.1576 12.1689 29.6069Z"/>
<path id="path8_fill" d="M 103.26 11.1112C 102.935 11.4447 102.605 11.7816 102.274 12.1216L 102.251 12.1453L 102.166 12.2323L 102.058 12.3439C 98.5244 15.9683 94.6592 19.933 90.3799 23.7798C 88.0244 21.8345 85.6709 19.9698 83.3252 18.1996C 80.6758 16.1959 78.1025 14.3652 75.6123 12.7104C 80.0361 8.94592 84.3789 4.59021 88.916 0C 90.6875 1.24438 92.4453 2.52905 94.1826 3.84326C 97.1924 6.12415 100.225 8.55786 103.26 11.1112Z"/>
</defs>
</svg>
