<svg width="32" height="16" viewBox="0 0 32 16" fill="none" xmlns="http://www.w3.org/2000/svg">
<path d="M15.5982 9.25058C15.1634 9.71315 14.5179 10.1625 13.7801 10.3475C13.0819 10.4929 12.4496 10.4665 12.0016 10.3607C11.5274 10.2286 11.1321 10.0039 10.8423 9.81888L10.7501 9.7528C10.513 9.60742 10.3417 9.48847 10.1177 9.43561C9.85425 9.34309 9.63029 9.32988 9.19555 9.42239C8.45779 9.56777 7.29847 10.255 6.03375 11.2462C4.79538 12.2242 3.59653 13.3741 2.72704 14.3785C2.21325 14.96 1.94977 15.4358 1.76533 15.8058C1.29106 15.6473 0.329346 15.1186 0.329346 15.1186C0.329346 15.1186 0.922182 14.0217 1.52819 13.3344C2.45038 12.2771 3.75462 11.0216 5.05886 9.99069C6.33676 8.98625 7.74639 8.08755 8.89254 7.84965C9.56442 7.71749 10.1704 7.77035 10.6052 7.90252C11.0531 8.0479 11.422 8.27257 11.7118 8.4576L11.7513 8.48403C12.0016 8.64263 12.1861 8.74836 12.4232 8.81444C12.6999 8.89374 12.9502 8.90695 13.4376 8.78801C13.8724 8.70871 14.1095 8.51047 14.4389 8.15363C14.6892 7.8893 14.9131 7.55889 15.1634 7.21527C15.2425 7.09632 15.3347 6.97738 15.4269 6.84522C16.1515 5.82756 17.1659 4.65131 19.1684 4.65131C20.5121 4.65131 21.9745 5.45751 23.3051 6.46194C24.662 7.4796 26.0585 8.85409 27.2968 10.1889C28.5352 11.5238 29.6418 12.8718 30.4191 13.8763C30.8143 14.3785 31.3545 15.0922 31.3545 15.0922L30.0107 15.8323C30.0107 15.8323 29.5628 15.2508 29.2729 14.8807C28.4957 13.8895 27.3232 12.5811 26.1243 11.2727C24.9255 9.96426 23.6212 8.69549 22.3433 7.73071C21.0523 6.7527 19.9588 6.23727 19.1684 6.23727C17.9827 6.23727 17.3899 6.84522 16.7312 7.77035C16.6521 7.87608 16.5862 7.98182 16.5072 8.08755V8.10076C16.2174 8.48403 15.9275 8.89374 15.5982 9.25058Z" fill="#FFD21A"/>
<path d="M1.55456 15.8059C1.55456 15.8059 1.67312 15.8588 1.75217 15.8456L1.79169 15.753C1.9893 15.3566 2.29231 14.8015 2.66118 14.1274C3.41211 12.7794 4.50556 10.9952 5.90202 9.21099C8.74764 5.61616 12.6604 2.23279 17.2581 2.23279C21.8164 2.23279 25.0045 5.56329 27.1256 9.14491C28.1795 10.9159 28.9173 12.6869 29.4047 14.0349C29.6418 14.709 29.8263 15.2508 29.9317 15.6473C29.958 15.7266 29.9975 15.8588 29.9975 15.8588L31.473 15.198C31.473 15.198 31.17 14.1935 30.9066 13.4931C30.4059 12.1054 29.6155 10.2154 28.5089 8.33871C26.3088 4.61172 22.6991 0.633625 17.2581 0.633625C11.8699 0.633625 7.54879 4.54564 4.66365 8.2462C3.20132 10.1097 2.042 11.9864 1.2779 13.3741C0.895848 14.0746 0.592842 14.6561 0.39523 15.0658C0.316185 15.2112 0.342534 15.4226 0.342534 15.4226L1.55456 15.8059Z" fill="#FF8494"/>
<path d="M11.5406 2.48384C10.8819 1.84945 10.1836 1.51905 9.26145 1.61156C8.26021 1.71729 7.25897 2.48384 6.27091 3.87154C5.28285 5.24604 4.46606 7.03023 3.781 8.85408C3.09594 10.6779 2.58215 12.4753 2.23962 13.8366C2.06836 14.5106 1.93662 15.0657 1.8444 15.4622C1.80488 15.634 1.65996 15.753 1.65996 15.753L1.34378 15.7133C1.34378 15.7133 0.553334 15.634 0.197632 15.449C0.210806 15.3565 0.250328 15.2508 0.289851 15.1186C0.38207 14.7221 0.513811 14.1274 0.698249 13.4401C1.04078 12.0392 1.58092 10.1757 2.27915 8.28578C2.99055 6.40907 3.88639 4.43984 4.9535 2.94641C6.03378 1.45297 7.39072 0.19742 9.09018 0.0256089C10.592 -0.132986 11.7382 0.461746 12.6472 1.34724C13.5035 2.17986 14.2017 3.32968 14.8341 4.41341L14.9527 4.61166C15.5455 5.61609 16.0988 6.55445 16.7707 7.26813C17.4426 7.99502 18.1408 8.39151 19.0235 8.39151C20.6044 8.39151 21.6583 7.32099 22.8967 6.07866L22.9099 6.06545C23.0021 5.97293 23.0943 5.88042 23.1865 5.7879C23.8057 5.16674 24.5303 4.47949 25.3998 4.14909C26.3483 3.79225 27.3627 3.91119 28.4298 4.63809C30.8143 6.25047 31.5258 9.277 31.7102 11.6559C31.8024 12.8718 31.6707 14.0613 31.6048 14.8675C31.5916 15.1054 31.5389 15.5151 31.5389 15.5151L29.9844 15.8587V15.8455C29.9976 15.7926 30.0107 15.7133 30.0239 15.6076C30.0502 15.3961 30.0898 15.0922 30.1161 14.7089C30.182 13.9291 30.2083 12.9115 30.1293 11.7881C29.9449 9.48846 29.273 7.13596 27.534 5.95972C26.8358 5.48393 26.3615 5.49715 25.9531 5.64253C25.4656 5.82755 24.965 6.26369 24.3195 6.91129C24.2141 7.01702 24.1219 7.12275 24.0033 7.22848L23.9901 7.24169L23.977 7.25491C22.8308 8.43116 21.3026 10.0039 19.0103 10.0039C17.548 10.0039 16.4414 9.30343 15.585 8.37829C14.7814 7.50602 14.1227 6.38264 13.5035 5.33855L13.4508 5.25925C12.8316 4.14909 12.252 3.17108 11.5406 2.48384Z" fill="#66DCC4"/>
<path d="M11.2902 2.27231C11.3693 2.33839 11.4483 2.41768 11.5274 2.49698C11.8304 2.78774 12.107 3.13136 12.3705 3.50142C12.8579 3.25031 13.3454 3.03885 13.846 2.85382C13.5298 2.37804 13.1873 1.92868 12.8184 1.54541C12.3046 1.74365 11.7908 1.99476 11.2902 2.27231Z" fill="#C9476F"/>
<path d="M3.3726 9.96426C2.50311 11.2198 1.7917 12.4093 1.25156 13.3608C0.869513 14.0613 0.566508 14.6428 0.368896 15.0525C0.316199 15.1715 0.276677 15.2376 0.22398 15.3697C0.210806 15.3961 0.197632 15.4358 0.197632 15.4358C0.197632 15.4358 1.11982 15.8455 1.55457 15.8587C1.62044 15.8587 1.68631 15.8587 1.76536 15.8455C1.7917 15.7398 1.81805 15.6076 1.85757 15.449C1.94979 15.0525 2.08153 14.4974 2.2528 13.8234C2.51628 12.7397 2.88516 11.3916 3.3726 9.96426Z" fill="#C9476F"/>
<path d="M25.3076 4.17546C24.8069 4.3737 24.3458 4.70411 23.9374 5.06095C24.3195 5.41779 24.6884 5.81427 25.0441 6.21076C25.3734 5.93322 25.6633 5.73498 25.9531 5.62925C26.1375 5.56317 26.3351 5.52352 26.5591 5.54995C26.1639 5.07416 25.7423 4.61159 25.3076 4.17546Z" fill="#C9476F"/>
<path d="M30.1029 11.4841C30.1161 11.5633 30.1161 11.6823 30.1293 11.7616C30.2215 12.885 30.182 13.9026 30.1161 14.6824C30.0898 15.0657 30.0502 15.3696 30.0239 15.5811C30.0107 15.6868 29.9975 15.7661 29.9844 15.819V15.8322C30.0371 15.8454 30.0898 15.8454 30.1425 15.8454C30.5772 15.8586 31.1305 15.6604 31.5389 15.4886C31.5126 15.3961 31.4862 15.2903 31.4467 15.1714C31.3281 14.7617 31.1437 14.167 30.8802 13.4665C30.6694 12.9114 30.4059 12.1977 30.1029 11.4841Z" fill="#C9476F"/>
<path d="M16.0066 8.76158C15.8617 8.62941 15.7168 8.49725 15.585 8.35187C15.3611 8.10076 15.1371 7.83644 14.9263 7.54568C14.9922 7.43995 15.0712 7.33422 15.1503 7.22849C15.2293 7.10954 15.3216 6.9906 15.4138 6.85843C15.5719 6.64697 15.7431 6.4223 15.9276 6.19762C16.191 6.59411 16.4677 6.95095 16.7575 7.26814C16.8234 7.33422 16.8893 7.4003 16.9551 7.46638C16.8761 7.57211 16.7971 7.67784 16.718 7.79679C16.639 7.90252 16.5731 8.00825 16.4941 8.11398V8.1272C16.336 8.32544 16.1779 8.5369 16.0066 8.76158Z" fill="#61A373"/>
<path d="M24.0955 7.12283C24.0692 7.14926 24.0428 7.17569 24.0033 7.21534L23.9901 7.22856L23.977 7.24177C23.6608 7.55896 23.3182 7.9158 22.9362 8.25943C22.7254 8.08762 22.5146 7.9158 22.317 7.77042C22.0799 7.59861 21.8559 7.4268 21.632 7.28142C22.0272 6.95102 22.4092 6.56774 22.8176 6.15804C22.9757 6.26377 23.1338 6.38272 23.2787 6.50166C23.5554 6.68669 23.8189 6.89815 24.0955 7.12283Z" fill="#61A373"/>
</svg>
